<?xml version="1.0" standalone="no"?>
<!DOCTYPE svg PUBLIC "-//W3C//DTD SVG 20010904//EN"
 "http://www.w3.org/TR/2001/REC-SVG-20010904/DTD/svg10.dtd">
<svg version="1.0" xmlns="http://www.w3.org/2000/svg"
 width="1024.000000pt" height="1024.000000pt" viewBox="0 0 1024.000000 1024.000000"
 preserveAspectRatio="xMidYMid meet">

<g transform="translate(0.000000,1024.000000) scale(0.100000,-0.100000)"
fill="#000000" stroke="none">
<path d="M4615 7174 c-473 -133 -1229 -343 -2475 -689 -349 -97 -677 -188
-728 -202 -51 -14 -89 -29 -85 -33 4 -5 141 -45 303 -90 162 -45 349 -96 415
-115 142 -40 1422 -396 1675 -465 96 -27 451 -125 788 -219 l612 -170 613 170
c336 94 691 192 787 219 96 26 526 146 955 265 429 120 803 224 830 231 28 8
67 14 88 14 l37 0 0 -463 0 -463 -34 -12 c-44 -16 -109 -79 -138 -134 -23 -42
-23 -50 -26 -400 l-3 -358 306 0 305 0 0 340 c0 318 -1 343 -21 394 -23 63
-93 139 -146 158 l-33 12 0 502 0 503 53 14 c28 9 88 25 132 37 44 12 84 25
88 29 4 5 -34 20 -85 34 -51 14 -379 105 -728 202 -349 97 -916 255 -1260 350
-344 96 -869 242 -1167 324 -298 83 -550 151 -560 150 -10 0 -234 -61 -498
-135z"/>
<path d="M2690 4685 l0 -965 28 0 c48 0 263 -20 384 -35 700 -89 1447 -361
1915 -696 48 -36 91 -59 107 -59 15 0 54 21 93 49 106 77 323 205 467 276 506
247 1116 409 1719 456 l157 12 0 964 c0 715 -3 963 -11 963 -7 0 -556 -151
-1220 -336 l-1209 -336 -1209 336 c-664 185 -1211 336 -1215 336 -3 0 -6 -434
-6 -965z"/>
</g>
</svg>
